<svg width="50" height="48" viewBox="0 0 50 48" fill="none" xmlns="http://www.w3.org/2000/svg">
<path d="M35.4167 4H14.5833C8.83036 4 4.16666 8.47715 4.16666 14V34C4.16666 39.5228 8.83036 44 14.5833 44H35.4167C41.1696 44 45.8333 39.5228 45.8333 34V14C45.8333 8.47715 41.1696 4 35.4167 4Z" stroke="#F5F5F5" stroke-width="2" stroke-linecap="round" stroke-linejoin="round"/>
<path d="M33.3333 22.7396C33.5905 24.4041 33.2943 26.1041 32.487 27.5977C31.6797 29.0913 30.4024 30.3025 28.8367 31.059C27.2711 31.8155 25.4968 32.0788 23.7662 31.8115C22.0357 31.5442 20.437 30.7598 19.1976 29.5699C17.9582 28.3801 17.1411 26.8454 16.8627 25.1841C16.5842 23.5227 16.8585 21.8194 17.6465 20.3164C18.4346 18.8133 19.6962 17.5871 21.2521 16.8121C22.8079 16.0371 24.5787 15.7528 26.3125 15.9996C28.0811 16.2514 29.7184 17.0426 30.9827 18.2562C32.247 19.4699 33.0711 21.0418 33.3333 22.7396Z" stroke="#F5F5F5" stroke-width="2" stroke-linecap="round" stroke-linejoin="round"/>
<path d="M36.4583 13H36.4792" stroke="#F5F5F5" stroke-width="2" stroke-linecap="round" stroke-linejoin="round"/>
</svg>
