<svg width="50" height="48" viewBox="0 0 50 48" fill="none" xmlns="http://www.w3.org/2000/svg">
<path d="M33.3333 16C36.6486 16 39.828 17.2643 42.1722 19.5147C44.5164 21.7652 45.8333 24.8174 45.8333 28V42H37.5V28C37.5 26.9391 37.061 25.9217 36.2796 25.1716C35.4982 24.4214 34.4384 24 33.3333 24C32.2283 24 31.1685 24.4214 30.3871 25.1716C29.6057 25.9217 29.1667 26.9391 29.1667 28V42H20.8333V28C20.8333 24.8174 22.1503 21.7652 24.4945 19.5147C26.8387 17.2643 30.0181 16 33.3333 16V16Z" stroke="#F5F5F5" stroke-width="2" stroke-linecap="round" stroke-linejoin="round"/>
<path d="M12.5 18H4.16666V42H12.5V18Z" stroke="#F5F5F5" stroke-width="2" stroke-linecap="round" stroke-linejoin="round"/>
<path d="M8.33332 12C10.6345 12 12.5 10.2091 12.5 8C12.5 5.79086 10.6345 4 8.33332 4C6.03214 4 4.16666 5.79086 4.16666 8C4.16666 10.2091 6.03214 12 8.33332 12Z" stroke="#F5F5F5" stroke-width="2" stroke-linecap="round" stroke-linejoin="round"/>
</svg>
